<svg width="120" height="23" viewBox="0 0 120 23" fill="none" xmlns="http://www.w3.org/2000/svg">
<path d="M8.876 5.214L5.166 15H4.046L0.336 5.214H1.4L4.606 13.936L7.84 5.214H8.876ZM11.2585 5.914C11.0625 5.914 10.8945 5.844 10.7545 5.704C10.6145 5.564 10.5445 5.39133 10.5445 5.186C10.5445 4.98067 10.6145 4.81267 10.7545 4.682C10.8945 4.542 11.0625 4.472 11.2585 4.472C11.4545 4.472 11.6225 4.542 11.7625 4.682C11.9025 4.81267 11.9725 4.98067 11.9725 5.186C11.9725 5.39133 11.9025 5.564 11.7625 5.704C11.6225 5.844 11.4545 5.914 11.2585 5.914ZM11.7485 7.356V15H10.7685V7.356H11.7485ZM21.3037 10.786C21.3037 11.122 21.2944 11.3787 21.2757 11.556H14.9337C14.9617 12.1347 15.1017 12.6293 15.3537 13.04C15.6057 13.4507 15.9371 13.7633 16.3477 13.978C16.7584 14.1833 17.2064 14.286 17.6917 14.286C18.3264 14.286 18.8584 14.132 19.2877 13.824C19.7264 13.516 20.0157 13.1007 20.1557 12.578H21.1917C21.0051 13.3247 20.6037 13.936 19.9877 14.412C19.3811 14.8787 18.6157 15.112 17.6917 15.112C16.9731 15.112 16.3291 14.9533 15.7597 14.636C15.1904 14.3093 14.7424 13.852 14.4157 13.264C14.0984 12.6667 13.9397 11.9713 13.9397 11.178C13.9397 10.3847 14.0984 9.68933 14.4157 9.092C14.7331 8.49467 15.1764 8.03733 15.7457 7.72C16.3151 7.40267 16.9637 7.244 17.6917 7.244C18.4197 7.244 19.0544 7.40267 19.5957 7.72C20.1464 8.03733 20.5664 8.46667 20.8557 9.008C21.1544 9.54 21.3037 10.1327 21.3037 10.786ZM20.3097 10.758C20.3191 10.1887 20.2024 9.70333 19.9597 9.302C19.7264 8.90067 19.4044 8.59733 18.9937 8.392C18.5831 8.18667 18.1351 8.084 17.6497 8.084C16.9217 8.084 16.3011 8.31733 15.7877 8.784C15.2744 9.25067 14.9897 9.90867 14.9337 10.758H20.3097ZM33.5967 7.356L31.2027 15H30.2227L28.1087 8.588L25.9947 15H25.0007L22.6067 7.356H23.6007L25.5047 14.006L27.6467 7.356H28.6267L30.7407 14.02L32.6307 7.356H33.5967ZM39.1665 10.1C39.1665 9.13867 39.3765 8.28 39.7965 7.524C40.2165 6.75867 40.7905 6.166 41.5185 5.746C42.2465 5.31667 43.0585 5.102 43.9545 5.102C45.0465 5.102 45.9799 5.36333 46.7545 5.886C47.5385 6.39933 48.1079 7.12733 48.4625 8.07H47.3145C47.0345 7.40733 46.6052 6.88933 46.0265 6.516C45.4572 6.14267 44.7665 5.956 43.9545 5.956C43.2359 5.956 42.5872 6.124 42.0085 6.46C41.4392 6.796 40.9912 7.28133 40.6645 7.916C40.3379 8.54133 40.1745 9.26933 40.1745 10.1C40.1745 10.9307 40.3379 11.6587 40.6645 12.284C40.9912 12.9093 41.4392 13.39 42.0085 13.726C42.5872 14.062 43.2359 14.23 43.9545 14.23C44.7665 14.23 45.4572 14.048 46.0265 13.684C46.6052 13.3107 47.0345 12.7973 47.3145 12.144H48.4625C48.1079 13.0773 47.5385 13.8007 46.7545 14.314C45.9705 14.8273 45.0372 15.084 43.9545 15.084C43.0585 15.084 42.2465 14.874 41.5185 14.454C40.7905 14.0247 40.2165 13.432 39.7965 12.676C39.3765 11.92 39.1665 11.0613 39.1665 10.1ZM57.4573 7.356V15H56.4773V13.656C56.2533 14.132 55.908 14.496 55.4413 14.748C54.9746 15 54.452 15.126 53.8733 15.126C52.9586 15.126 52.212 14.846 51.6333 14.286C51.0546 13.7167 50.7653 12.8953 50.7653 11.822V7.356H51.7313V11.71C51.7313 12.5407 51.9366 13.1753 52.3473 13.614C52.7673 14.0527 53.3366 14.272 54.0553 14.272C54.7926 14.272 55.3806 14.0387 55.8193 13.572C56.258 13.1053 56.4773 12.4193 56.4773 11.514V7.356H57.4573ZM61.0947 8.714C61.3094 8.238 61.636 7.86933 62.0747 7.608C62.5227 7.34667 63.0687 7.216 63.7127 7.216V8.238H63.4467C62.7374 8.238 62.168 8.42933 61.7387 8.812C61.3094 9.19467 61.0947 9.834 61.0947 10.73V15H60.1147V7.356H61.0947V8.714ZM66.587 8.714C66.8016 8.238 67.1283 7.86933 67.567 7.608C68.015 7.34667 68.561 7.216 69.205 7.216V8.238H68.939C68.2296 8.238 67.6603 8.42933 67.231 8.812C66.8016 9.19467 66.587 9.834 66.587 10.73V15H65.607V7.356H66.587V8.714ZM71.5892 5.914C71.3932 5.914 71.2252 5.844 71.0852 5.704C70.9452 5.564 70.8752 5.39133 70.8752 5.186C70.8752 4.98067 70.9452 4.81267 71.0852 4.682C71.2252 4.542 71.3932 4.472 71.5892 4.472C71.7852 4.472 71.9532 4.542 72.0932 4.682C72.2332 4.81267 72.3032 4.98067 72.3032 5.186C72.3032 5.39133 72.2332 5.564 72.0932 5.704C71.9532 5.844 71.7852 5.914 71.5892 5.914ZM72.0792 7.356V15H71.0992V7.356H72.0792ZM74.2704 11.178C74.2704 10.3847 74.4291 9.694 74.7464 9.106C75.0638 8.50867 75.5024 8.05133 76.0624 7.734C76.6224 7.40733 77.2618 7.244 77.9804 7.244C78.9231 7.244 79.6978 7.47733 80.3044 7.944C80.9204 8.41067 81.3171 9.04533 81.4944 9.848H80.4444C80.3138 9.29733 80.0291 8.868 79.5904 8.56C79.1611 8.24267 78.6244 8.084 77.9804 8.084C77.4671 8.084 77.0051 8.20067 76.5944 8.434C76.1838 8.66733 75.8571 9.01733 75.6144 9.484C75.3811 9.94133 75.2644 10.506 75.2644 11.178C75.2644 11.85 75.3811 12.4193 75.6144 12.886C75.8571 13.3527 76.1838 13.7027 76.5944 13.936C77.0051 14.1693 77.4671 14.286 77.9804 14.286C78.6244 14.286 79.1611 14.132 79.5904 13.824C80.0291 13.5067 80.3138 13.068 80.4444 12.508H81.4944C81.3171 13.292 80.9204 13.922 80.3044 14.398C79.6884 14.874 78.9138 15.112 77.9804 15.112C77.2618 15.112 76.6224 14.9533 76.0624 14.636C75.5024 14.3093 75.0638 13.852 74.7464 13.264C74.4291 12.6667 74.2704 11.9713 74.2704 11.178ZM90.3464 7.356V15H89.3664V13.656C89.1424 14.132 88.797 14.496 88.3304 14.748C87.8637 15 87.341 15.126 86.7624 15.126C85.8477 15.126 85.101 14.846 84.5224 14.286C83.9437 13.7167 83.6544 12.8953 83.6544 11.822V7.356H84.6204V11.71C84.6204 12.5407 84.8257 13.1753 85.2364 13.614C85.6564 14.0527 86.2257 14.272 86.9444 14.272C87.6817 14.272 88.2697 14.0387 88.7084 13.572C89.147 13.1053 89.3664 12.4193 89.3664 11.514V7.356H90.3464ZM93.9838 4.64V15H93.0038V4.64H93.9838ZM103.245 7.356V15H102.265V13.656C102.041 14.132 101.696 14.496 101.229 14.748C100.762 15 100.24 15.126 99.661 15.126C98.7463 15.126 97.9996 14.846 97.421 14.286C96.8423 13.7167 96.553 12.8953 96.553 11.822V7.356H97.519V11.71C97.519 12.5407 97.7243 13.1753 98.135 13.614C98.555 14.0527 99.1243 14.272 99.843 14.272C100.58 14.272 101.168 14.0387 101.607 13.572C102.046 13.1053 102.265 12.4193 102.265 11.514V7.356H103.245ZM115.002 7.216C115.898 7.216 116.626 7.50067 117.186 8.07C117.756 8.63 118.04 9.44667 118.04 10.52V15H117.074V10.632C117.074 9.80133 116.874 9.16667 116.472 8.728C116.071 8.28933 115.525 8.07 114.834 8.07C114.116 8.07 113.542 8.308 113.112 8.784C112.683 9.26 112.468 9.95067 112.468 10.856V15H111.502V10.632C111.502 9.80133 111.302 9.16667 110.9 8.728C110.499 8.28933 109.948 8.07 109.248 8.07C108.53 8.07 107.956 8.308 107.526 8.784C107.097 9.26 106.882 9.95067 106.882 10.856V15H105.902V7.356H106.882V8.672C107.125 8.196 107.47 7.83667 107.918 7.594C108.366 7.342 108.866 7.216 109.416 7.216C110.079 7.216 110.658 7.37467 111.152 7.692C111.656 8.00933 112.02 8.476 112.244 9.092C112.45 8.48533 112.8 8.02333 113.294 7.706C113.798 7.37933 114.368 7.216 115.002 7.216Z" fill="black"/>
<rect width="106.427" height="2" transform="matrix(0.999844 -0.0176789 -0.0176789 -0.999844 1.60413 22.9374)" fill="#EF8782"/>
</svg>
