<svg width="129" height="23" viewBox="0 0 129 23" fill="none" xmlns="http://www.w3.org/2000/svg">
<rect x="16.0248" y="19.0578" width="112" height="2" transform="rotate(0.964176 16.0248 19.0578)" fill="#E7332B" fill-opacity="0.66"/>
<path d="M3.39258 15.2246H10.2305V17H0.703125V15.5586L7.32129 5.99609H0.74707V4.20312H10.0195V5.60938L3.39258 15.2246ZM18.0654 16.0684C17.4384 16.8066 16.5478 17.1758 15.3935 17.1758C14.3623 17.1758 13.58 16.874 13.0468 16.2705C12.5195 15.667 12.2558 14.7939 12.2558 13.6514V7.49023H14.3916V13.625C14.3916 14.832 14.8925 15.4355 15.8945 15.4355C16.9316 15.4355 17.6318 15.0635 17.9951 14.3193V7.49023H20.1308V17H18.1181L18.0654 16.0684ZM27.8251 9.44141C27.5439 9.39453 27.2538 9.37109 26.955 9.37109C25.9765 9.37109 25.3173 9.74609 24.9775 10.4961V17H22.8417V7.49023H24.8808L24.9335 8.55371C25.4491 7.72754 26.164 7.31445 27.078 7.31445C27.3827 7.31445 27.6347 7.35547 27.8339 7.4375L27.8251 9.44141ZM31.9862 17H29.8505V7.49023H31.9862V17ZM29.7186 5.02051C29.7186 4.69238 29.8212 4.41992 30.0263 4.20312C30.2372 3.98633 30.536 3.87793 30.9227 3.87793C31.3095 3.87793 31.6083 3.98633 31.8192 4.20312C32.0302 4.41992 32.1356 4.69238 32.1356 5.02051C32.1356 5.34277 32.0302 5.6123 31.8192 5.8291C31.6083 6.04004 31.3095 6.14551 30.9227 6.14551C30.536 6.14551 30.2372 6.04004 30.0263 5.8291C29.8212 5.6123 29.7186 5.34277 29.7186 5.02051ZM48.8074 5.99609H44.8172V17H42.6111V5.99609H38.6561V4.20312H48.8074V5.99609ZM55.2273 9.44141C54.9461 9.39453 54.656 9.37109 54.3572 9.37109C53.3787 9.37109 52.7195 9.74609 52.3797 10.4961V17H50.2439V7.49023H52.283L52.3357 8.55371C52.8513 7.72754 53.5662 7.31445 54.4802 7.31445C54.7849 7.31445 55.0369 7.35547 55.2361 7.4375L55.2273 9.44141ZM62.5349 17C62.4411 16.8184 62.3591 16.5225 62.2888 16.1123C61.6091 16.8213 60.7771 17.1758 59.7927 17.1758C58.8376 17.1758 58.0583 16.9033 57.4548 16.3584C56.8513 15.8135 56.5495 15.1396 56.5495 14.3369C56.5495 13.3232 56.9245 12.5469 57.6745 12.0078C58.4304 11.4629 59.5085 11.1904 60.9089 11.1904H62.2185V10.5664C62.2185 10.0742 62.0808 9.68164 61.8054 9.38867C61.53 9.08984 61.1111 8.94043 60.5486 8.94043C60.0622 8.94043 59.6638 9.06348 59.3532 9.30957C59.0427 9.5498 58.8874 9.85742 58.8874 10.2324H56.7517C56.7517 9.71094 56.9245 9.22461 57.2702 8.77344C57.6159 8.31641 58.0847 7.95898 58.6765 7.70117C59.2741 7.44336 59.9392 7.31445 60.6716 7.31445C61.7849 7.31445 62.6726 7.5957 63.3347 8.1582C63.9968 8.71484 64.3366 9.5 64.3542 10.5137V14.8027C64.3542 15.6582 64.4743 16.3408 64.7146 16.8506V17H62.5349ZM60.1882 15.4619C60.6101 15.4619 61.0056 15.3594 61.3747 15.1543C61.7497 14.9492 62.031 14.6738 62.2185 14.3281V12.5352H61.0671C60.2761 12.5352 59.6814 12.6729 59.2829 12.9482C58.8845 13.2236 58.6853 13.6133 58.6853 14.1172C58.6853 14.5273 58.82 14.8555 59.0896 15.1016C59.365 15.3418 59.7312 15.4619 60.1882 15.4619ZM69.403 17H67.2673V7.49023H69.403V17ZM67.1354 5.02051C67.1354 4.69238 67.238 4.41992 67.443 4.20312C67.654 3.98633 67.9528 3.87793 68.3395 3.87793C68.7262 3.87793 69.0251 3.98633 69.236 4.20312C69.447 4.41992 69.5524 4.69238 69.5524 5.02051C69.5524 5.34277 69.447 5.6123 69.236 5.8291C69.0251 6.04004 68.7262 6.14551 68.3395 6.14551C67.9528 6.14551 67.654 6.04004 67.443 5.8291C67.238 5.6123 67.1354 5.34277 67.1354 5.02051ZM74.2584 7.49023L74.32 8.58887C75.0231 7.73926 75.9459 7.31445 77.0885 7.31445C79.069 7.31445 80.0768 8.44824 80.112 10.7158V17H77.9762V10.8389C77.9762 10.2354 77.8444 9.79004 77.5807 9.50293C77.3229 9.20996 76.8981 9.06348 76.3063 9.06348C75.445 9.06348 74.8034 9.45312 74.3815 10.2324V17H72.2457V7.49023H74.2584ZM85.108 17H82.9723V7.49023H85.108V17ZM82.8404 5.02051C82.8404 4.69238 82.943 4.41992 83.148 4.20312C83.359 3.98633 83.6578 3.87793 84.0445 3.87793C84.4313 3.87793 84.7301 3.98633 84.941 4.20312C85.152 4.41992 85.2574 4.69238 85.2574 5.02051C85.2574 5.34277 85.152 5.6123 84.941 5.8291C84.7301 6.04004 84.4313 6.14551 84.0445 6.14551C83.6578 6.14551 83.359 6.04004 83.148 5.8291C82.943 5.6123 82.8404 5.34277 82.8404 5.02051ZM89.9634 7.49023L90.025 8.58887C90.7281 7.73926 91.6509 7.31445 92.7935 7.31445C94.774 7.31445 95.7818 8.44824 95.817 10.7158V17H93.6812V10.8389C93.6812 10.2354 93.5494 9.79004 93.2857 9.50293C93.0279 9.20996 92.6031 9.06348 92.0113 9.06348C91.15 9.06348 90.5084 9.45312 90.0865 10.2324V17H87.9507V7.49023H89.9634ZM98.1675 12.1748C98.1675 10.6982 98.5132 9.52051 99.2046 8.6416C99.9019 7.75684 100.825 7.31445 101.973 7.31445C103.057 7.31445 103.91 7.69238 104.531 8.44824L104.627 7.49023H106.552V16.71C106.552 17.958 106.163 18.9424 105.383 19.6631C104.61 20.3838 103.564 20.7441 102.246 20.7441C101.548 20.7441 100.866 20.5977 100.198 20.3047C99.5357 20.0176 99.0318 19.6396 98.6861 19.1709L99.6968 17.8877C100.353 18.667 101.162 19.0566 102.123 19.0566C102.832 19.0566 103.391 18.8633 103.801 18.4766C104.211 18.0957 104.417 17.5332 104.417 16.7891V16.1475C103.801 16.833 102.981 17.1758 101.956 17.1758C100.842 17.1758 99.9312 16.7334 99.2222 15.8486C98.5191 14.9639 98.1675 13.7393 98.1675 12.1748ZM100.294 12.3594C100.294 13.3145 100.488 14.0674 100.875 14.6182C101.267 15.1631 101.809 15.4355 102.501 15.4355C103.362 15.4355 104.001 15.0664 104.417 14.3281V10.1445C104.012 9.42383 103.379 9.06348 102.518 9.06348C101.815 9.06348 101.267 9.3418 100.875 9.89844C100.488 10.4551 100.294 11.2754 100.294 12.3594Z" fill="black"/>
</svg>
